<?xml version="1.0" encoding="utf-8"?>
<!-- Generator: Adobe Illustrator 24.0.0, SVG Export Plug-In . SVG Version: 6.00 Build 0)  -->
<svg version="1.1" xmlns="http://www.w3.org/2000/svg" xmlns:xlink="http://www.w3.org/1999/xlink" x="0px" y="0px"
	 viewBox="0 0 800 800" style="enable-background:new 0 0 800 800;" xml:space="preserve">
<style type="text/css">
	.st0{opacity:0.5;}
	.st1{opacity:0.7;}
	.st2{fill:#3B9044;}
	.st3{fill:#7BDE45;}
</style>
<g id="background">
</g>
<g id="objects">
	<g>
		<g class="st0">
			<g class="st1">
				<path d="M399.7,491.6c-49.8,0-96.7-19.4-131.9-54.6c-35.2-35.2-54.6-82.1-54.6-131.9c0-49.8,19.4-96.7,54.6-131.9
					c35.2-35.2,82.1-54.6,131.9-54.6c49.8,0,96.7,19.4,131.9,54.6c35.2,35.2,54.6,82.1,54.6,131.9c0,49.8-19.4,96.7-54.6,131.9
					C496.4,472.2,449.6,491.6,399.7,491.6z M399.7,166.1c-76.6,0-138.9,62.3-138.9,138.9c0,76.6,62.3,138.9,138.9,138.9
					c76.6,0,138.9-62.3,138.9-138.9C538.7,228.4,476.3,166.1,399.7,166.1z"/>
			</g>
		</g>
		<g>
			<path class="st2" d="M399.7,491.6c-49.8,0-96.7-19.4-131.9-54.6c-35.2-35.2-54.6-82.1-54.6-131.9c0-49.8,19.4-96.7,54.6-131.9
				c35.2-35.2,82.1-54.6,131.9-54.6c49.8,0,96.7,19.4,131.9,54.6c35.2,35.2,54.6,82.1,54.6,131.9c0,49.8-19.4,96.7-54.6,131.9
				C496.4,472.2,449.6,491.6,399.7,491.6z M399.7,166.1c-76.6,0-138.9,62.3-138.9,138.9c0,76.6,62.3,138.9,138.9,138.9
				c76.6,0,138.9-62.3,138.9-138.9C538.7,228.4,476.3,166.1,399.7,166.1z"/>
		</g>
		<g>
			<g class="st0">
				<polygon class="st0" points="623.8,189.2 581.8,147.1 403.1,323.9 332.5,254.3 290.5,296.4 402.6,407.4 404.8,405.2 
					405.3,405.7 				"/>
			</g>
			<polygon class="st3" points="623.8,189.2 581.8,147.1 403.1,323.9 332.5,254.3 290.5,296.4 402.6,407.4 404.8,405.2 405.3,405.7 
							"/>
		</g>
	</g>
</g>
</svg>
